<svg xmlns="http://www.w3.org/2000/svg" width="10" height="12" viewBox="0 0 10 12" fill="none">
  <path opacity="0.25" d="M8.4727 5.10972H7.53129V3.39543C7.53129 2.71345 7.23374 2.0594 6.70409 1.57716C6.17444 1.09492 5.45609 0.824005 4.70706 0.824005C3.95802 0.824005 3.23967 1.09492 2.71002 1.57716C2.18037 2.0594 1.88282 2.71345 1.88282 3.39543V5.10972H0.941411C0.691733 5.10972 0.452282 5.20002 0.275733 5.36077C0.0991841 5.52152 0 5.73953 0 5.96686V10.2526C0 10.4799 0.0991841 10.6979 0.275733 10.8587C0.452282 11.0194 0.691733 11.1097 0.941411 11.1097H8.4727C8.72238 11.1097 8.96183 11.0194 9.13838 10.8587C9.31493 10.6979 9.41411 10.4799 9.41411 10.2526V5.96686C9.41411 5.73953 9.31493 5.52152 9.13838 5.36077C8.96183 5.20002 8.72238 5.10972 8.4727 5.10972ZM5.64847 5.10972H3.76564V3.39543C3.76564 3.1681 3.86483 2.95009 4.04138 2.78934C4.21793 2.6286 4.45738 2.53829 4.70706 2.53829C4.95673 2.53829 5.19618 2.6286 5.37273 2.78934C5.54928 2.95009 5.64847 3.1681 5.64847 3.39543V5.10972Z" fill="#121212"/>
</svg>