<svg width="10" height="12" viewBox="0 0 10 12" fill="none" xmlns="http://www.w3.org/2000/svg">
<path id="Path 1209" d="M8.55996 5.15196H7.65996V3.43767C7.65996 2.75568 7.3755 2.10163 6.86915 1.6194C6.3628 1.13716 5.67605 0.866241 4.95996 0.866241C4.24388 0.866241 3.55712 1.13716 3.05077 1.6194C2.54442 2.10163 2.25996 2.75568 2.25996 3.43767V5.15196H1.35996C1.12127 5.15196 0.892348 5.24226 0.723565 5.40301C0.554782 5.56375 0.459961 5.78177 0.459961 6.0091V10.2948C0.459961 10.5221 0.554782 10.7402 0.723565 10.9009C0.892348 11.0616 1.12127 11.152 1.35996 11.152H8.55996C8.79866 11.152 9.02757 11.0616 9.19636 10.9009C9.36514 10.7402 9.45996 10.5221 9.45996 10.2948V6.0091C9.45996 5.78177 9.36514 5.56375 9.19636 5.40301C9.02757 5.24226 8.79866 5.15196 8.55996 5.15196ZM5.85996 5.15196H4.05996V3.43767C4.05996 3.21034 4.15478 2.99232 4.32356 2.83158C4.49235 2.67083 4.72127 2.58053 4.95996 2.58053C5.19866 2.58053 5.42757 2.67083 5.59636 2.83158C5.76514 2.99232 5.85996 3.21034 5.85996 3.43767V5.15196Z" fill="#121212"/>
</svg>
